
<svg xmlns="http://www.w3.org/2000/svg" width="50" height="61" viewBox="0 0 50 61"><rect x="0.5" y="0.5" width="49" height="60" style="fill:#fff"/><path d="M49,1V60H1V1H49m1-1H0V61H50V0Z" style="fill:#e4e4e4"/><path d="M8,54.54,7.5,56.82H6.15L8.1,48.05H9.73l1.8,8.77H10.18l-.47-2.28Zm1.6-1.09-.36-2c-.12-.57-.24-1.37-.33-2h0c-.09.62-.22,1.46-.32,2l-.39,2Z" style="fill:#666"/><path d="M12.43,56.82V48.05H13.7l1.48,3.75c.32.79.76,1.92,1,2.77h0c-.08-1.12-.16-2.47-.16-4V48.05H17.3v8.77H16l-1.49-3.74a24.42,24.42,0,0,1-1-2.78h0c.06,1,.1,2.25.1,4.07v2.45Z" style="fill:#666"/><path d="M18.71,48.18A6.75,6.75,0,0,1,20.27,48a3.18,3.18,0,0,1,2.26.73,4.55,4.55,0,0,1,1.16,3.54A5.11,5.11,0,0,1,22.56,56a3.49,3.49,0,0,1-2.58.88,8.66,8.66,0,0,1-1.27-.09Zm1.38,7.53a1.31,1.31,0,0,0,.33,0c1,0,1.84-.81,1.84-3.47,0-2-.56-3.14-1.77-3.14a2.35,2.35,0,0,0-.4,0Z" style="fill:#666"/><path d="M24.69,48.18A7.84,7.84,0,0,1,26.35,48a3,3,0,0,1,2.17.64,2.26,2.26,0,0,1,.67,1.78,2.31,2.31,0,0,1-1.38,2.21v0c.62.22.93.8,1.12,1.84a13.27,13.27,0,0,0,.53,2.31H28a12.24,12.24,0,0,1-.45-2.14c-.17-1.14-.49-1.51-1.19-1.51h-.31v3.65H24.69Zm1.38,3.93h.36a1.38,1.38,0,0,0,1.35-1.55c0-.86-.35-1.44-1.25-1.45a1.5,1.5,0,0,0-.46,0Z" style="fill:#666"/><path d="M32.53,56.92c-1.75,0-2.62-1.85-2.62-4.5S30.9,48,32.67,48s2.56,2,2.56,4.37c0,3.3-1.16,4.6-2.69,4.6Zm.07-1.21c.9,0,1.19-1.57,1.19-3.33,0-1.58-.26-3.22-1.2-3.22s-1.25,1.62-1.23,3.25.31,3.3,1.23,3.3Z" style="fill:#666"/><path d="M37.62,48.05v8.77H36.23V48.05Z" style="fill:#666"/><path d="M39,48.18A6.75,6.75,0,0,1,40.6,48a3.18,3.18,0,0,1,2.26.73A4.55,4.55,0,0,1,44,52.28,5.11,5.11,0,0,1,42.89,56a3.49,3.49,0,0,1-2.58.88A8.66,8.66,0,0,1,39,56.79Zm1.38,7.53a1.38,1.38,0,0,0,.34,0c1,0,1.83-.81,1.83-3.47,0-2-.56-3.14-1.77-3.14a2.35,2.35,0,0,0-.4,0Z" style="fill:#666"/><path d="M5,5H45V45H5Z" style="fill:#e7eec6"/><ellipse cx="25" cy="18.91" rx="9.01" ry="8.32" style="fill:#a3c547;stroke:#fefefe;stroke-width:0.5px"/><rect x="15.99" y="16.83" width="18.03" height="18.03" rx="2.17" style="fill:#a3c547;stroke:#fefefe;stroke-width:0.5px"/><path d="M19.09,8.39a.63.63,0,0,0-.25.86l3.49,6.34A.65.65,0,0,0,23.47,15L20,8.64a.63.63,0,0,0-.86-.26Zm17.7,10.52a2.38,2.38,0,0,0-2.38,2.38v8.42a2.38,2.38,0,0,0,4.76,0h0V21.29a2.39,2.39,0,0,0-2.38-2.38Zm-8.42,9.61A2.38,2.38,0,0,0,26,30.89v8.43a2.38,2.38,0,0,0,4.76,0h0V30.89a2.38,2.38,0,0,0-2.38-2.37ZM30.91,8.39a.63.63,0,0,1,.25.86l-3.49,6.34A.65.65,0,0,1,26.53,15L30,8.64A.64.64,0,0,1,30.91,8.39ZM13.21,18.91a2.38,2.38,0,0,1,2.38,2.38v8.42a2.38,2.38,0,0,1-4.75,0h0V21.29a2.36,2.36,0,0,1,2.36-2.38Zm8.42,9.61A2.38,2.38,0,0,1,24,30.89v8.43a2.38,2.38,0,0,1-4.76,0h0V30.89a2.38,2.38,0,0,1,2.38-2.37Z" style="fill:#a3c547;stroke:#fefefe;stroke-width:0.5px"/><ellipse cx="25" cy="18.91" rx="9.01" ry="8.32" style="fill:#a3c547"/><rect x="15.99" y="16.83" width="18.03" height="18.03" rx="2.17" style="fill:#a3c547"/><path d="M15.59,19.25H34.41" style="fill:#fefefe;stroke:#fefefe;stroke-width:0.5px"/><circle cx="20.84" cy="14.85" r="0.4" style="fill:#fefefe;stroke:#fefefe;stroke-width:0.5px"/><circle cx="29.16" cy="14.85" r="0.4" style="fill:#fefefe;stroke:#fefefe;stroke-width:0.5px"/></svg>