<svg xmlns="http://www.w3.org/2000/svg" width="50" height="61" viewBox="0 0 50 61"><rect x="0.5" y="0.5" width="49" height="60" style="fill:#fff"/><path d="M49,1V60H1V1H49m1-1H0V61H50V0Z" style="fill:#e4e4e4"/><path d="M19.68,49.64a.81.81,0,0,1,0-1.61.73.73,0,0,1,.75.8.75.75,0,0,1-.75.81ZM19,56.82V50.48h1.4v6.34Z" style="fill:#666"/><path d="M23.89,56.92c-1.74,0-2.61-1.85-2.61-4.5S22.26,48,24,48s2.56,2,2.56,4.37c0,3.3-1.15,4.6-2.69,4.6ZM24,55.71c.89,0,1.18-1.57,1.18-3.33,0-1.58-.26-3.22-1.2-3.22s-1.24,1.62-1.23,3.25.31,3.3,1.23,3.3Z" style="fill:#666"/><path d="M27.4,55.33a2.9,2.9,0,0,0,1.35.35,1.18,1.18,0,0,0,1.33-1.22c0-.7-.43-1.1-1.15-1.6a3.1,3.1,0,0,1-1.65-2.44A2.36,2.36,0,0,1,29.84,48a2.65,2.65,0,0,1,1.3.31l-.24,1.19a2.1,2.1,0,0,0-1.08-.3,1.07,1.07,0,0,0-1.17,1.07c0,.68.35,1,1.24,1.56a2.92,2.92,0,0,1,1.55,2.51,2.49,2.49,0,0,1-2.69,2.57,3.42,3.42,0,0,1-1.59-.36Z" style="fill:#666"/><path d="M5,5H45V45H5Z" style="fill:#0c5b80"/><path d="M11.21,20.47A1.21,1.21,0,0,1,10,19.28v-.05A1.25,1.25,0,1,1,12.49,19a1.13,1.13,0,0,1,0,.26,1.21,1.21,0,0,1-1.18,1.24h-.1Zm-1,13V22.33h2v11.1Zm11.46.25c-4.11,0-7-3.16-7-7.84,0-4.89,3-8.11,7.15-8.11s7,3.27,7,7.82c0,5.33-3.23,8.13-7.15,8.13Zm.1-1.63c3.16,0,5-2.92,5-6.41,0-3.07-1.6-6.28-4.92-6.28s-5,3.09-5,6.44,1.78,6.25,4.93,6.25Zm9.39-1a7,7,0,0,0,3.56,1c2,0,3.23-1,3.23-2.6s-.83-2.29-2.91-3.06C32.56,25.43,31,24.11,31,22c0-2.4,2-4.19,5-4.19a7.17,7.17,0,0,1,3.4.73l-.56,1.66a5.61,5.61,0,0,0-2.91-.74c-2.11,0-2.91,1.26-2.91,2.31,0,1.41,1,2.13,3.07,3C38.75,25.71,40,27,40,29.21s-1.75,4.44-5.33,4.44a8,8,0,0,1-3.94-1Z" style="fill:#fff"/></svg>