<svg xmlns="http://www.w3.org/2000/svg" width="50" height="61" viewBox="0 0 50 61"><rect x="0.5" y="0.5" width="49" height="60" style="fill:#fff"/><path d="M49,1V60H1V1H49m1-1H0V61H50V0Z" style="fill:#e4e4e4"/><path d="M17.17,56.82V48.05h1.28l1.48,3.75c.31.79.75,1.92,1,2.77h0c-.07-1.12-.15-2.47-.15-4V48.05h1.22v8.77H20.78l-1.5-3.74a26.55,26.55,0,0,1-1-2.78h0c.07,1,.11,2.25.11,4.07v2.45Z" style="fill:#666"/><path d="M23.45,48.18A6.88,6.88,0,0,1,25,48a3.21,3.21,0,0,1,2.27.73,4.59,4.59,0,0,1,1.15,3.54A5.11,5.11,0,0,1,27.3,56a3.45,3.45,0,0,1-2.57.88,8.81,8.81,0,0,1-1.28-.09Zm1.38,7.53a1.42,1.42,0,0,0,.34,0c1,0,1.83-.81,1.83-3.47,0-2-.56-3.14-1.77-3.14a2.46,2.46,0,0,0-.4,0Z" style="fill:#666"/><path d="M29.24,55.33a2.87,2.87,0,0,0,1.35.35,1.18,1.18,0,0,0,1.33-1.22c0-.7-.43-1.1-1.15-1.6a3.1,3.1,0,0,1-1.65-2.44A2.36,2.36,0,0,1,31.68,48a2.65,2.65,0,0,1,1.3.31l-.24,1.19a2.1,2.1,0,0,0-1.08-.3,1.07,1.07,0,0,0-1.17,1.07c0,.68.35,1,1.24,1.56a2.92,2.92,0,0,1,1.55,2.51,2.49,2.49,0,0,1-2.69,2.57A3.42,3.42,0,0,1,29,56.53Z" style="fill:#666"/><path d="M5,5H45V45H5Z" style="fill:#dedede"/><path d="M13.75,29.37a.24.24,0,0,1-.22.23H9.47a.24.24,0,0,1-.22-.23V26.43a.21.21,0,0,1,.22-.2h4.06a.21.21,0,0,1,.22.2Zm-.18-4H9.43a1.1,1.1,0,0,0-1.1,1.1v3a1.09,1.09,0,0,0,1.1,1.09h4.14a1.09,1.09,0,0,0,1.1-1.09v-3a1.1,1.1,0,0,0-1.1-1.1" style="fill:#909295"/><path d="M13.75,23.67a.22.22,0,0,1-.22.21H9.47a.22.22,0,0,1-.22-.21v-3a.22.22,0,0,1,.22-.22h4.06a.22.22,0,0,1,.22.22Zm-.18-4H9.43a1.09,1.09,0,0,0-1.1,1.09v2.91a1.09,1.09,0,0,0,1.1,1.09h4.14a1.09,1.09,0,0,0,1.1-1.09v-3a1.1,1.1,0,0,0-1.1-1.1m17.3,8.74a15.3,15.3,0,0,0,4.7.7c1.78,0,2.52-.6,2.52-1.33s-.69-1.09-2.66-1.81c-2.67-1-4.56-1.74-4.56-3.47s2.32-2.84,5.85-2.84a16.39,16.39,0,0,1,3.76.33v1.7a18,18,0,0,0-3.87-.6c-1.74,0-2.49.56-2.49,1.13,0,.83,1.15,1.21,3.16,1.95,2.8,1,4.36,1.76,4.36,3.45s-2,3-6.33,3a24.4,24.4,0,0,1-4.44-.35V28.31" style="fill:#221e20"/><path d="M21.49,21H19.4v8h2.09c3.22,0,5.26-1.33,5.26-4S24.71,21,21.49,21Zm5.63,8.68a13.23,13.23,0,0,1-4.71.77H15.85V19.53h6.56a13.46,13.46,0,0,1,4.71.78,5,5,0,0,1,0,9.33" style="fill:#221e20"/></svg>