<svg xmlns="http://www.w3.org/2000/svg" width="50" height="61" viewBox="0 0 50 61"><rect x="0.5" y="0.5" width="49" height="60" style="fill:#fff"/><path d="M49,1V60H1V1H49m1-1H0V61H50V0Z" style="fill:#e4e4e4"/><path d="M18.16,48.18A7.53,7.53,0,0,1,19.78,48a3.06,3.06,0,0,1,2.2.67,2.5,2.5,0,0,1,.7,1.87,2.66,2.66,0,0,1-2.76,2.86h-.39v3.42H18.16Zm1.37,4.07a1.2,1.2,0,0,0,.34,0c.91,0,1.42-.63,1.42-1.63,0-.82-.34-1.5-1.28-1.5a1.61,1.61,0,0,0-.48.06Z" style="fill:#666"/><path d="M23.43,55.33a3,3,0,0,0,1.36.35,1.17,1.17,0,0,0,1.32-1.22c0-.7-.43-1.1-1.14-1.6a3.08,3.08,0,0,1-1.65-2.44A2.36,2.36,0,0,1,25.88,48a2.68,2.68,0,0,1,1.3.31l-.25,1.19a2.07,2.07,0,0,0-1.08-.3,1.07,1.07,0,0,0-1.17,1.07c0,.68.35,1,1.25,1.56a2.94,2.94,0,0,1,1.55,2.51,2.49,2.49,0,0,1-2.69,2.57,3.35,3.35,0,0,1-1.59-.36Z" style="fill:#666"/><path d="M30,49.7h0l-1.42.77-.24-1.08,1.86-1H31.4v8.45H30Z" style="fill:#666"/><path d="M5,5H45V45H5Z" style="fill:#e7e6e5"/><path d="M26.09,27.51l-4.85-1.44L18.57,27l4.82,1.47Z" style="fill:#3d73b8"/><path d="M21,36.05l5.48,1.82,4.85-1.75-5.45-1.67Z" style="fill:#e3b433"/><path d="M34,31.76l-8.18,2.67,5.46,1.66,7.86-2.84-5.06-1.54H34Zm-7.6-2.37-.43.16c-.64.26-5.57,1.89-5.57,1.89s-.91.37-1.94.76l4.8,1.47,8-2.78-4.92-1.5Z" style="fill:#46a699"/><path d="M40.87,29.55a17.92,17.92,0,0,0-8.62-1.63,39.05,39.05,0,0,0-5.82,1.47l4.92,1.5,1.81-.56a5.75,5.75,0,0,1,3.21-.17c1.64.44-1.12,1.33-2.26,1.64l5.06,1.55.34-.12s4.21-2,1.33-3.62Z" style="fill:#3d73b8"/><path d="M17.84,32.44a5.52,5.52,0,0,1-3.51.45c-1.62-.58.12-1.33,1.16-1.6l-4.7-1.45c-1.44.83-5.19,3.43,2,4.77,5.8,1.08,7.88,0,9.2-.5l1.34-.44-4.8-1.47-.66.24Z" style="fill:#e3b433"/><path d="M16.16,31.08l7.25-2.67L18.6,27l-7.33,2.59-.48.25,4.72,1.45Z" style="fill:#46a699"/><path d="M21,12.13V36.05l5.48,1.82V17.47c0-.86,2-1.34,2,.5s0,8.68,0,8.68,2.76,1.4,4.51,0a7.14,7.14,0,0,0-.13-9.94s-1.52-1.82-7.39-3.35Z" style="fill:#c84535"/></svg>