
<svg xmlns="http://www.w3.org/2000/svg" width="50" height="61" viewBox="0 0 50 61"><rect x="0.5" y="0.5" width="49" height="60" style="fill:#fff"/><path d="M49,1V60H1V1H49m1-1H0V61H50V0Z" style="fill:#e4e4e4"/><path d="M18.16,48.18A7.53,7.53,0,0,1,19.78,48a3.06,3.06,0,0,1,2.2.67,2.5,2.5,0,0,1,.7,1.87,2.66,2.66,0,0,1-2.76,2.86h-.39v3.42H18.16Zm1.37,4.07a1.2,1.2,0,0,0,.34,0c.91,0,1.42-.63,1.42-1.63,0-.82-.34-1.5-1.28-1.5a1.61,1.61,0,0,0-.48.06Z" style="fill:#666"/><path d="M23.43,55.33a3,3,0,0,0,1.36.35,1.17,1.17,0,0,0,1.32-1.22c0-.7-.43-1.1-1.14-1.6a3.08,3.08,0,0,1-1.65-2.44A2.36,2.36,0,0,1,25.88,48a2.68,2.68,0,0,1,1.3.31l-.25,1.19a2.07,2.07,0,0,0-1.08-.3,1.07,1.07,0,0,0-1.17,1.07c0,.68.35,1,1.25,1.56a2.94,2.94,0,0,1,1.55,2.51,2.49,2.49,0,0,1-2.69,2.57,3.35,3.35,0,0,1-1.59-.36Z" style="fill:#666"/><path d="M28.23,55.44a2.54,2.54,0,0,0,1.23.34,1.31,1.31,0,0,0,1.37-1.43,1.47,1.47,0,0,0-1.64-1.53H29v-1h.17a1.35,1.35,0,0,0,1.47-1.28,1,1,0,0,0-1-1.11,1.87,1.87,0,0,0-1.06.36l-.23-1a3,3,0,0,1,1.64-.47,1.92,1.92,0,0,1,2.08,2,2.09,2.09,0,0,1-1.24,1.94v0a2.14,2.14,0,0,1,1.47,2.19,2.49,2.49,0,0,1-2.65,2.52A3.15,3.15,0,0,1,28,56.53Z" style="fill:#666"/><path d="M5,5H45V45H5Z" style="fill:#5c62a8"/><path d="M20.8,12.13c1.45.28,2.87.67,4.29,1.07.82.23,1.62.48,2.43.73a17.76,17.76,0,0,1,3.65,1.54,7.21,7.21,0,0,1,1.43,1.09,5.7,5.7,0,0,1,1.11,1.55,8.9,8.9,0,0,1,.72,3.34,11,11,0,0,1-.1,2.22,5.18,5.18,0,0,1-.66,1.82,3.19,3.19,0,0,1-2.84,1.58,5.82,5.82,0,0,1-2.42-.62V18.92a7.37,7.37,0,0,0-.06-1.33,1.61,1.61,0,0,0-.48-.94,1.25,1.25,0,0,0-.66-.3.64.64,0,0,0-.64.24,1.91,1.91,0,0,0-.32,1.09V37.87l-5.42-1.74Zm-8.13,17,7.08-2.51V29.8l-5.6,2a1.78,1.78,0,0,0-.72.41.34.34,0,0,0-.12.36.58.58,0,0,0,.36.31,4.3,4.3,0,0,0,1.33.21A6.64,6.64,0,0,0,16.41,33a6.33,6.33,0,0,0,.94-.28l2.38-.87v2.83a19.41,19.41,0,0,1-3,.31,18,18,0,0,1-5.92-.9,5.08,5.08,0,0,1-1.77-.81,2,2,0,0,1-.67-.85,1.2,1.2,0,0,1,0-.91A1.9,1.9,0,0,1,9,30.85a8.92,8.92,0,0,1,1.89-1A13.38,13.38,0,0,1,12.67,29.16Z" style="fill:#fefefe"/><path d="M31.67,28.11c.54,0,1.08-.08,1.61-.1a17.9,17.9,0,0,1,5.24.75l1,.35a5,5,0,0,1,1.65.89,1.44,1.44,0,0,1,.53,1,1.25,1.25,0,0,1-.34.87,4.83,4.83,0,0,1-1.46,1,14,14,0,0,1-1.76.69L27.28,37.49V34.33l8.25-2.93a4,4,0,0,0,1.1-.49c.12-.11.25-.27.18-.44a.61.61,0,0,0-.37-.3A3.78,3.78,0,0,0,35.11,30a6.67,6.67,0,0,0-2,.37l-5.88,2V29.08A19.61,19.61,0,0,1,31.67,28.11Z" style="fill:#fefefe"/></svg>