
<svg xmlns="http://www.w3.org/2000/svg" width="50" height="61" viewBox="0 0 50 61"><rect x="0.5" y="0.5" width="49" height="60" style="fill:#fff"/><path d="M49,1V60H1V1H49m1-1H0V61H50V0Z" style="fill:#e4e4e4"/><path d="M11.67,48.18A7.7,7.7,0,0,1,13.3,48a3.06,3.06,0,0,1,2.2.67,2.54,2.54,0,0,1,.7,1.87,2.66,2.66,0,0,1-2.76,2.86h-.39v3.42H11.67Zm1.38,4.07a1.2,1.2,0,0,0,.34,0c.91,0,1.42-.63,1.42-1.63,0-.82-.34-1.5-1.28-1.5a1.61,1.61,0,0,0-.48.06Z" style="fill:#666"/><path d="M17,55.33a2.94,2.94,0,0,0,1.35.35,1.18,1.18,0,0,0,1.33-1.22c0-.7-.43-1.1-1.14-1.6a3.08,3.08,0,0,1-1.65-2.44A2.36,2.36,0,0,1,19.4,48a2.68,2.68,0,0,1,1.3.31l-.25,1.19a2.07,2.07,0,0,0-1.08-.3,1.07,1.07,0,0,0-1.17,1.07c0,.68.35,1,1.25,1.56A2.94,2.94,0,0,1,21,54.32a2.5,2.5,0,0,1-2.7,2.57,3.37,3.37,0,0,1-1.58-.36Z" style="fill:#666"/><path d="M24.9,56.82l-2-8.77h1.52L25.17,52c.17,1,.39,2.12.52,3.18h0c.12-1.08.31-2.19.49-3.21l.7-3.9h1.51l-2,8.77Z" style="fill:#666"/><path d="M29.47,49.64a.81.81,0,0,1,0-1.61.73.73,0,0,1,.75.8.75.75,0,0,1-.75.81Zm-.66,7.18V50.48H30.2v6.34Z" style="fill:#666"/><path d="M33,48.91v1.57h1.22v1H33v3.28c0,.78.3,1,.65,1a2.09,2.09,0,0,0,.43,0l0,1.08a3.41,3.41,0,0,1-.91.1,1.54,1.54,0,0,1-1.12-.39,2.22,2.22,0,0,1-.46-1.71v-3.3h-.76v-1h.76V49.39Z" style="fill:#666"/><path d="M38.79,55.37a10.92,10.92,0,0,0,.08,1.45H37.62l-.08-.64h0a1.58,1.58,0,0,1-1.34.74,1.68,1.68,0,0,1-1.6-1.87c0-1.63,1.38-2.32,2.81-2.33v-.17c0-.66-.26-1.12-1-1.12a2.13,2.13,0,0,0-1.18.35l-.26-1a3.56,3.56,0,0,1,1.74-.45c1.64,0,2,1.12,2,2.47Zm-1.36-1.73c-.55,0-1.52.16-1.52,1.26,0,.72.37,1,.69,1a.83.83,0,0,0,.79-.73,1.08,1.08,0,0,0,0-.32Z" style="fill:#666"/><path d="M5,5H45V45H5Z" style="fill:#e7e6e5"/><path d="M20.64,11.41c1.45.27,2.88.66,4.29,1.06l2.43.73A17.8,17.8,0,0,1,31,14.75a6.09,6.09,0,0,1,1.43,1.09,5.7,5.7,0,0,1,1.11,1.55,8.59,8.59,0,0,1,.78,3.34A9.26,9.26,0,0,1,34.21,23a5.16,5.16,0,0,1-.66,1.83A3.37,3.37,0,0,1,32.32,26a3.46,3.46,0,0,1-1.61.37,5.66,5.66,0,0,1-2.42-.61V18.21a7.41,7.41,0,0,0-.06-1.33,1.64,1.64,0,0,0-.48-.93,1.37,1.37,0,0,0-.72-.28.64.64,0,0,0-.64.24A1.83,1.83,0,0,0,26.07,17V37.13l-5.43-1.72Zm-8.13,17,7.08-2.51v3.16c-1.87.65-3.72,1.33-5.59,2a1.83,1.83,0,0,0-.72.4.34.34,0,0,0-.12.36.63.63,0,0,0,.37.31,4.32,4.32,0,0,0,1.34.21,8.92,8.92,0,0,0,1.45-.15,5.9,5.9,0,0,0,.93-.29l2.4-.87v2.83a19.41,19.41,0,0,1-3,.31,17.52,17.52,0,0,1-5.92-.9A5.08,5.08,0,0,1,9,32.48a2.19,2.19,0,0,1-.67-.84,1.2,1.2,0,0,1,0-.91A1.84,1.84,0,0,1,9,30.05a10.26,10.26,0,0,1,1.89-1C11.35,28.83,11.93,28.64,12.51,28.43Z" style="fill:#999"/><path d="M31.48,27.37c.55-.06,1.08-.08,1.61-.09a17.18,17.18,0,0,1,5.24.76c.34.09.66.23,1,.33a4.94,4.94,0,0,1,1.65.91,1.41,1.41,0,0,1,.54,1,1.25,1.25,0,0,1-.35.87,4.59,4.59,0,0,1-1.45,1,15.72,15.72,0,0,1-1.76.7l-10.86,3.9V33.61l8.26-2.94a3.71,3.71,0,0,0,1.09-.5.43.43,0,0,0,.19-.44.69.69,0,0,0-.38-.29,3.74,3.74,0,0,0-1.33-.21,6.38,6.38,0,0,0-2,.32l-5.8,2.12V28.35A21.43,21.43,0,0,1,31.48,27.37Z" style="fill:#999"/></svg>