
<svg xmlns="http://www.w3.org/2000/svg" width="50" height="61" viewBox="0 0 50 61"><rect x="0.5" y="0.5" width="49" height="60" style="fill:#fff"/><path d="M49,1V60H1V1H49m1-1H0V61H50V0Z" style="fill:#e4e4e4"/><path d="M9.68,55.33a2.9,2.9,0,0,0,1.35.35,1.18,1.18,0,0,0,1.33-1.22c0-.7-.43-1.1-1.15-1.6a3.1,3.1,0,0,1-1.65-2.44A2.36,2.36,0,0,1,12.12,48a2.65,2.65,0,0,1,1.3.31l-.24,1.19a2.07,2.07,0,0,0-1.08-.3,1.07,1.07,0,0,0-1.17,1.07c0,.68.35,1,1.25,1.56a2.93,2.93,0,0,1,1.54,2.51A2.49,2.49,0,0,1,11,56.89a3.34,3.34,0,0,1-1.58-.36Z" style="fill:#666"/><path d="M15.7,56.82l-1.59-8.77h1.45l.55,3.83c.16,1,.27,2,.37,3.12h0c.11-1.1.31-2,.5-3.14l.72-3.81h1.14l.68,3.77c.18,1,.35,2,.47,3.18h0c.13-1.2.26-2.15.39-3.15l.56-3.8h1.37l-1.61,8.77H19.34l-.66-3.49c-.16-.87-.3-1.86-.42-2.88h0c-.14,1-.28,2-.48,2.89L17,56.82Z" style="fill:#666"/><path d="M24.62,48.05v8.77H23.23V48.05Z" style="fill:#666"/><path d="M27,49.33H25.44V48.05H30v1.28H28.4v7.49H27Z" style="fill:#666"/><path d="M34.55,56.67a3.12,3.12,0,0,1-1.29.22c-2,0-3.14-1.64-3.14-4.34,0-3.37,1.78-4.57,3.34-4.57a2.34,2.34,0,0,1,1.14.22l-.26,1.18a1.7,1.7,0,0,0-.83-.18c-.95,0-1.93.87-1.93,3.26s.89,3.2,1.94,3.2a2.53,2.53,0,0,0,.86-.16Z" style="fill:#666"/><path d="M36.79,48.05v3.63h2.08V48.05h1.39v8.77H38.87V53H36.79v3.87h-1.4V48.05Z" style="fill:#666"/><path d="M5,5H45V45H5Z" style="fill:#c84532"/><path d="M27.67,40h4.61A7.69,7.69,0,0,0,40,32.31h0V17.64A7.69,7.69,0,0,0,32.28,10H27.67a.18.18,0,0,0-.19.18v29.6a.22.22,0,0,0,.21.22Zm5.7-16.53a3,3,0,1,1-3,3h0a3.05,3.05,0,0,1,3.07-3h0ZM14.71,19a2.84,2.84,0,1,0,2.84-2.84h0A2.81,2.81,0,0,0,14.67,19V19Zm9.57-9H17.69A7.69,7.69,0,0,0,10,17.69h0V32.36a7.69,7.69,0,0,0,7.69,7.69h6.55a.21.21,0,0,0,.21-.21V10.21a.21.21,0,0,0-.21-.21ZM22.09,37.6h-4.4A5.15,5.15,0,0,1,14,36a5.33,5.33,0,0,1-1.56-3.73V17.64A5.15,5.15,0,0,1,14,13.91a5.33,5.33,0,0,1,3.73-1.56h4.36Z" style="fill:#fefefe"/></svg>