<svg xmlns="http://www.w3.org/2000/svg" width="50" height="61" viewBox="0 0 50 61"><rect x="0.5" y="0.5" width="49" height="60" style="fill:#fff"/><path d="M49,1V60H1V1H49m1-1H0V61H50V0Z" style="fill:#e4e4e4"/><path d="M20.09,56.82,18.5,48.05h1.44l.56,3.83c.16,1,.26,2,.37,3.12h0c.11-1.1.31-2,.5-3.14l.72-3.81h1.14L24,51.82c.18,1,.35,2,.47,3.18h0c.13-1.2.26-2.15.39-3.15l.56-3.8h1.37l-1.62,8.77H23.73l-.67-3.49c-.15-.87-.3-1.86-.41-2.88h0c-.14,1-.29,2-.48,2.89l-.71,3.48Z" style="fill:#666"/><path d="M27.94,49.64A.81.81,0,0,1,28,48a.74.74,0,0,1,.76.8.75.75,0,0,1-.76.81Zm-.66,7.18V50.48h1.39v6.34Z" style="fill:#666"/><path d="M30.47,49.64a.81.81,0,0,1,0-1.61.73.73,0,0,1,.75.8.75.75,0,0,1-.75.81Zm-.66,7.18V50.48H31.2v6.34Z" style="fill:#666"/><path d="M5,5H45V45H5Z" style="fill:#dedede"/><path d="M15.47,28.87,13,18.76H10l3.37,12a2.07,2.07,0,0,0,4,0l2.3-8.31L22,30.69a2.08,2.08,0,0,0,4,0l3.38-12h-3l-2.53,10L21.55,20a2,2,0,0,0-2.44-1.33A1.94,1.94,0,0,0,17.79,20l-2.32,8.84m18.62-9.32a1.69,1.69,0,1,1-1.7-1.68h0a1.68,1.68,0,0,1,1.68,1.68ZM31,22.93h2.8v9.2H31Zm9-3.38a1.7,1.7,0,1,1-1.71-1.68h0A1.67,1.67,0,0,1,40,19.55Zm-3.08,3.38h2.8v9.2h-2.8Z" style="fill:#656767"/></svg>