<svg xmlns="http://www.w3.org/2000/svg" width="50" height="61" viewBox="0 0 50 61"><rect x="0.5" y="0.5" width="49" height="60" style="fill:#fff"/><path d="M49,1V60H1V1H49m1-1H0V61H50V0Z" style="fill:#e4e4e4"/><path d="M16,56.82l-1.58-8.77h1.44l.56,3.83c.16,1,.26,2,.36,3.12h0c.12-1.1.31-2,.51-3.14L18,48.05h1.15l.67,3.77c.19,1,.36,2,.47,3.18h0c.13-1.2.26-2.15.39-3.15l.56-3.8h1.36l-1.61,8.77H19.64L19,53.33c-.16-.87-.3-1.86-.42-2.88h0c-.14,1-.29,2-.48,2.89l-.72,3.48Z" style="fill:#666"/><path d="M23.85,49.64a.81.81,0,0,1,0-1.61.73.73,0,0,1,.75.8.75.75,0,0,1-.75.81Zm-.66,7.18V50.48h1.39v6.34Z" style="fill:#666"/><path d="M26.39,49.64a.81.81,0,0,1,0-1.61.74.74,0,0,1,.76.8.75.75,0,0,1-.76.81Zm-.66,7.18V50.48h1.39v6.34Z" style="fill:#666"/><path d="M31.67,48.05v5.78c0,1.41.44,1.87,1,1.87s1-.45,1-1.87V48.05h1.39v5.54c0,2.26-.9,3.33-2.4,3.33s-2.38-1.09-2.38-3.26V48.05Z" style="fill:#666"/><path d="M5,5H45V45H5Z" style="fill:#dedede"/><path d="M15.47,21.53,13,11.43H10l3.37,12a2.07,2.07,0,0,0,4,0l2.3-8.31L22,23.36a2.09,2.09,0,0,0,2.57,1.43A2.06,2.06,0,0,0,26,23.36l3.38-12h-3l-2.53,10-2.25-8.67a2,2,0,0,0-2.44-1.32,1.94,1.94,0,0,0-1.32,1.32l-2.32,8.84m18.62-9.32a1.69,1.69,0,1,1-1.7-1.68h0a1.68,1.68,0,0,1,1.68,1.68ZM31,15.6h2.8v9.2H31Zm9-3.39a1.7,1.7,0,1,1-1.71-1.68h0A1.68,1.68,0,0,1,40,12.21ZM36.92,15.6h2.8v9.2h-2.8Z" style="fill:#656767"/><path d="M22.79,33.92c0,3.75,4.42,3.21,4.42.59V28.29H22.79Z" style="fill:#0c99c6"/><path d="M16.67,37.87a2.85,2.85,0,0,0,2.74,3,3,3,0,0,0,.42,0H30.49a2.66,2.66,0,0,0,2.85-2.47c0-.06,0-.13,0-.19V30.33c0-.94-.71-2-1.58-2H29.29v6.41c0,4.87-8.48,4.84-8.48.11V28.21H18.93a2.1,2.1,0,0,0-2.26,1.92v7.74Z" style="fill:#0c99c6"/></svg>