<svg xmlns="http://www.w3.org/2000/svg" width="50" height="61" viewBox="0 0 50 61"><rect x="0.5" y="0.5" width="49" height="60" style="fill:#fff"/><path d="M49,1V60H1V1H49m1-1H0V61H50V0Z" style="fill:#e4e4e4"/><path d="M5,5H45V45H5Z" style="fill:#009acf"/><path d="M11.33,15.41l10.9-1.48V24.44l-10.9.07Zm10.9,10.24V36.17L11.35,34.68V25.59Zm1.33-11.92L38,11.67V24.35l-14.45.12V13.73ZM38,25.73v12.6l-14.46-2V25.73Z" style="fill:#fefefe"/><path d="M20.7,48.18A7.7,7.7,0,0,1,22.33,48a3.06,3.06,0,0,1,2.2.67,2.54,2.54,0,0,1,.7,1.87,2.66,2.66,0,0,1-2.76,2.86h-.39v3.42H20.7Zm1.38,4.07a1.2,1.2,0,0,0,.34,0c.91,0,1.42-.63,1.42-1.63,0-.82-.34-1.5-1.28-1.5a1.61,1.61,0,0,0-.48.06Z" style="fill:#666"/><path d="M30.21,56.67a3.12,3.12,0,0,1-1.29.22c-2,0-3.15-1.64-3.15-4.34,0-3.37,1.78-4.57,3.34-4.57a2.36,2.36,0,0,1,1.15.22L30,49.38a1.7,1.7,0,0,0-.83-.18c-1,0-1.93.87-1.93,3.26s.89,3.2,1.94,3.2A2.58,2.58,0,0,0,30,55.5Z" style="fill:#666"/></svg>