
<svg xmlns="http://www.w3.org/2000/svg" width="50" height="61" viewBox="0 0 50 61"><rect x="0.5" y="0.5" width="49" height="60" style="fill:#fff"/><path d="M49,1V60H1V1H49m1-1H0V61H50V0Z" style="fill:#e4e4e4"/><path d="M9.19,56.82,8.52,55c-.17-.49-.32-1-.49-1.54H8c-.17.57-.31,1.09-.45,1.57l-.6,1.81H5.55l1.7-4.48L5.61,48.05H7.05l.63,1.81c.15.43.28.87.45,1.4h0c.17-.57.28-1,.42-1.43l.57-1.78h1.39L8.86,52.37l1.77,4.45Z" style="fill:#666"/><path d="M11.32,48.18A8.42,8.42,0,0,1,13.05,48a3,3,0,0,1,2.08.61,2,2,0,0,1,.62,1.57,2,2,0,0,1-1.29,1.92v0A2.11,2.11,0,0,1,16,54.31,2.47,2.47,0,0,1,15.4,56a3.37,3.37,0,0,1-2.63.84,9.94,9.94,0,0,1-1.45-.09Zm1.38,3.53h.4a1.31,1.31,0,0,0,1.29-1.37,1.11,1.11,0,0,0-1.2-1.27,1.59,1.59,0,0,0-.49,0Zm0,4a1.78,1.78,0,0,0,.44,0,1.38,1.38,0,0,0,1.47-1.51,1.45,1.45,0,0,0-1.51-1.54h-.4Z" style="fill:#666"/><path d="M19.29,56.92c-1.75,0-2.62-1.85-2.62-4.5s1-4.47,2.76-4.47S22,50,22,52.32c0,3.3-1.16,4.6-2.69,4.6Zm.07-1.21c.9,0,1.19-1.57,1.19-3.33,0-1.58-.26-3.22-1.2-3.22s-1.25,1.62-1.23,3.25.31,3.3,1.23,3.3Z" style="fill:#666"/><path d="M25.93,56.82,25.27,55c-.17-.49-.33-1-.5-1.54h0c-.17.57-.31,1.09-.45,1.57l-.6,1.81H22.29L24,52.34l-1.64-4.29H23.8l.62,1.81c.16.43.29.87.46,1.4h0c.17-.57.29-1,.42-1.43l.57-1.78h1.39L25.6,52.37l1.77,4.45Z" style="fill:#666"/><path d="M29.79,55.44a2.55,2.55,0,0,0,1.24.34,1.31,1.31,0,0,0,1.36-1.43,1.48,1.48,0,0,0-1.64-1.53h-.23v-1h.17a1.35,1.35,0,0,0,1.47-1.28,1,1,0,0,0-1-1.11,1.87,1.87,0,0,0-1.06.36l-.23-1a3,3,0,0,1,1.64-.47,1.92,1.92,0,0,1,2.08,2,2.09,2.09,0,0,1-1.24,1.94v0a2.13,2.13,0,0,1,1.47,2.19,2.49,2.49,0,0,1-2.65,2.52,3.13,3.13,0,0,1-1.57-.39Z" style="fill:#666"/><path d="M38.79,49.41a3.21,3.21,0,0,0-.65.07,3,3,0,0,0-2,2.62h0a1.68,1.68,0,0,1,1.37-.73c1.1,0,1.87,1,1.87,2.6s-.74,3-2.27,3-2.4-1.43-2.4-3.47A5.89,5.89,0,0,1,36,49.57,3.72,3.72,0,0,1,38,48.35a6.28,6.28,0,0,1,.75-.09Zm-1.66,6.48c.56,0,.89-.67.89-1.88,0-1-.34-1.63-1-1.63a1,1,0,0,0-.87.72,1.84,1.84,0,0,0-.08.63c0,1.39.42,2.16,1,2.16Z" style="fill:#666"/><path d="M42.19,56.92c-1.6,0-2.3-1.86-2.3-4.3,0-2.63.81-4.36,2.39-4.36s2.26,2,2.26,4.3c0,3.06-1,4.36-2.34,4.36Zm.07-1.18c.65,0,.89-1.17.89-3.15s-.23-3.15-.91-3.15-1,1.15-1,3.15.27,3.15,1,3.15Z" style="fill:#666"/><path d="M5,5H45V45H5Z" style="fill:#88b34b"/><path d="M40,25A15,15,0,1,1,24.83,10.17H25A14.93,14.93,0,0,1,40,25Z" style="fill:#fefefe"/><path d="M21.2,18.51c-1.67,2-8.6,10.16-8,15.68a16.2,16.2,0,0,0,1.33,1.53c0-4.23,4.88-8.75,8.75-12.16l-2.16-5Z" style="fill:#329e54"/><path d="M21.19,18.51c-1.66,2-8.59,10.16-8,15.68a14.88,14.88,0,0,0,1.33,1.53c0-4.23,4.88-8.75,8.75-12.16Z" style="fill:#92be4a"/><path d="M17.12,12.39a14.11,14.11,0,0,0-2.4,1.81,11.31,11.31,0,0,1,6.07,4.28,42.5,42.5,0,0,1,2.56,5.09c.56-.48,1.13-.94,1.7-1.41V14.84a14.83,14.83,0,0,0-7.9-2.45Z" style="fill:#92be4a"/><path d="M17.12,12.39a14.11,14.11,0,0,0-2.4,1.81,11.31,11.31,0,0,1,6.07,4.28,42.5,42.5,0,0,1,2.56,5.09c.56-.48,1.13-.94,1.7-1.41V14.84a14.83,14.83,0,0,0-7.9-2.45Z" style="fill:#92be4a"/><path d="M28.81,18.51c1.66,2,8.56,10.17,8,15.7a16.08,16.08,0,0,1-1.33,1.52c0-4.22-4.87-8.74-8.72-12.16l2.16-5.06Z" style="fill:#92be4a"/><path d="M28.81,18.51c1.66,2,8.56,10.17,8,15.7a13.78,13.78,0,0,1-1.33,1.52c0-4.22-4.87-8.74-8.73-12.16Z" style="fill:#92be4a"/><path d="M32.87,12.39a14.52,14.52,0,0,1,2.4,1.81,11.39,11.39,0,0,0-6.06,4.28,46,46,0,0,0-2.56,5.11c-.53-.47-1.09-.94-1.69-1.42V14.84a14.68,14.68,0,0,1,7.87-2.45Z" style="fill:#92be4a"/><path d="M32.87,12.39a14.52,14.52,0,0,1,2.4,1.81,11.39,11.39,0,0,0-6.06,4.28,46,46,0,0,0-2.56,5.11c-.53-.47-1.09-.94-1.69-1.42V14.84a14.68,14.68,0,0,1,7.87-2.45Z" style="fill:#92be4a"/></svg>