
<svg xmlns="http://www.w3.org/2000/svg" width="50" height="61" viewBox="0 0 50 61"><rect x="0.5" y="0.5" width="49" height="60" style="fill:#fff"/><path d="M49,1V60H1V1H49m1-1H0V61H50V0Z" style="fill:#e4e4e4"/><path d="M8.47,56.82,7.81,55c-.17-.49-.33-1-.5-1.54h0C7.11,54,7,54.53,6.82,55l-.6,1.81H4.83l1.7-4.48L4.9,48.05H6.34L7,49.86c.16.43.29.87.46,1.4h0c.17-.57.29-1,.42-1.43l.57-1.78H9.82L8.15,52.37l1.76,4.45Z" style="fill:#666"/><path d="M10.6,48.18A8.5,8.5,0,0,1,12.33,48a3,3,0,0,1,2.08.61A2,2,0,0,1,15,50.19a2.06,2.06,0,0,1-1.29,1.92v0a2.11,2.11,0,0,1,1.57,2.16A2.42,2.42,0,0,1,14.68,56a3.34,3.34,0,0,1-2.62.84,10.1,10.1,0,0,1-1.46-.09ZM12,51.71h.4a1.31,1.31,0,0,0,1.29-1.37,1.11,1.11,0,0,0-1.2-1.27,1.67,1.67,0,0,0-.49,0Zm0,4a1.83,1.83,0,0,0,.44,0,1.38,1.38,0,0,0,1.47-1.51,1.44,1.44,0,0,0-1.51-1.54H12Z" style="fill:#666"/><path d="M18.57,56.92c-1.74,0-2.61-1.85-2.61-4.5S17,48,18.71,48s2.57,2,2.57,4.37c0,3.3-1.16,4.6-2.7,4.6Zm.08-1.21c.9,0,1.18-1.57,1.18-3.33,0-1.58-.26-3.22-1.19-3.22s-1.25,1.62-1.24,3.25.31,3.3,1.24,3.3Z" style="fill:#666"/><path d="M25.21,56.82,24.55,55c-.17-.49-.32-1-.49-1.54h0c-.17.57-.31,1.09-.46,1.57L23,56.82H21.57l1.71-4.48-1.64-4.29h1.44l.63,1.81c.15.43.28.87.45,1.4h0c.17-.57.28-1,.41-1.43l.57-1.78h1.4l-1.68,4.32,1.77,4.45Z" style="fill:#666"/><path d="M31.48,56.92c-1.74,0-2.61-1.85-2.61-4.5s1-4.47,2.75-4.47,2.56,2,2.56,4.37c0,3.3-1.15,4.6-2.69,4.6Zm.08-1.21c.9,0,1.18-1.57,1.18-3.33,0-1.58-.26-3.22-1.2-3.22s-1.24,1.62-1.23,3.25.31,3.3,1.23,3.3Z" style="fill:#666"/><path d="M35.18,56.82V48.05h1.28l1.48,3.75c.31.79.75,1.92,1,2.77h0c-.07-1.12-.15-2.47-.15-4V48.05h1.22v8.77H38.79l-1.5-3.74a26.55,26.55,0,0,1-1-2.78h0c.07,1,.11,2.25.11,4.07v2.45Z" style="fill:#666"/><path d="M44.93,52.82H42.85v2.79h2.37v1.21H41.46V48.05h3.6v1.21H42.85v2.41h2.08Z" style="fill:#666"/><path d="M5,5H45V45H5Z" style="fill:#2c6e42"/><path d="M40,25A15,15,0,1,1,24.83,10.17H25A14.93,14.93,0,0,1,40,25Z" style="fill:#fefefe"/><path d="M21.2,18.51c-1.67,2-8.6,10.16-8,15.68a16.2,16.2,0,0,0,1.33,1.53c0-4.23,4.88-8.75,8.75-12.16l-2.16-5Z" style="fill:#329e54"/><path d="M21.19,18.51c-1.66,2-8.59,10.16-8,15.68a14.88,14.88,0,0,0,1.33,1.53c0-4.23,4.88-8.75,8.75-12.16Z" style="fill:#2e6e43"/><path d="M17.12,12.39a14.11,14.11,0,0,0-2.4,1.81,11.31,11.31,0,0,1,6.07,4.28,42.5,42.5,0,0,1,2.56,5.09c.56-.48,1.13-.94,1.7-1.41V14.84a14.83,14.83,0,0,0-7.9-2.45Z" style="fill:#2e6e43"/><path d="M17.12,12.39a14.11,14.11,0,0,0-2.4,1.81,11.31,11.31,0,0,1,6.07,4.28,42.5,42.5,0,0,1,2.56,5.09c.56-.48,1.13-.94,1.7-1.41V14.84a14.83,14.83,0,0,0-7.9-2.45Z" style="fill:#2e6e43"/><path d="M28.81,18.51c1.66,2,8.56,10.17,8,15.7a16.08,16.08,0,0,1-1.33,1.52c0-4.22-4.87-8.74-8.72-12.16l2.16-5.06Z" style="fill:#2e6e43"/><path d="M28.81,18.51c1.66,2,8.56,10.17,8,15.7a13.78,13.78,0,0,1-1.33,1.52c0-4.22-4.87-8.74-8.73-12.16Z" style="fill:#2e6e43"/><path d="M32.87,12.39a14.52,14.52,0,0,1,2.4,1.81,11.39,11.39,0,0,0-6.06,4.28,46,46,0,0,0-2.56,5.11c-.53-.47-1.09-.94-1.69-1.42V14.84a14.68,14.68,0,0,1,7.87-2.45Z" style="fill:#2e6e43"/><path d="M32.87,12.39a14.52,14.52,0,0,1,2.4,1.81,11.39,11.39,0,0,0-6.06,4.28,46,46,0,0,0-2.56,5.11c-.53-.47-1.09-.94-1.69-1.42V14.84a14.68,14.68,0,0,1,7.87-2.45Z" style="fill:#2e6e43"/></svg>