
<svg xmlns="http://www.w3.org/2000/svg" width="50" height="61" viewBox="0 0 50 61"><rect x="0.5" y="0.5" width="49" height="60" style="fill:#fff"/><path d="M49,1V60H1V1H49m1-1H0V61H50V0Z" style="fill:#e4e4e4"/><path d="M17.91,56.82,17.25,55c-.17-.49-.33-1-.5-1.54h0c-.17.57-.31,1.09-.45,1.57l-.6,1.81H14.27L16,52.34l-1.64-4.29h1.45l.62,1.81c.16.43.29.87.46,1.4h0c.17-.57.29-1,.42-1.43l.57-1.78h1.39l-1.68,4.32,1.77,4.45Z" style="fill:#666"/><path d="M20,48.18A8.5,8.5,0,0,1,21.77,48a3,3,0,0,1,2.08.61,2,2,0,0,1,.62,1.57,2,2,0,0,1-1.28,1.92v0a2.11,2.11,0,0,1,1.57,2.16A2.42,2.42,0,0,1,24.12,56a3.34,3.34,0,0,1-2.62.84A10.1,10.1,0,0,1,20,56.79Zm1.38,3.53h.4a1.31,1.31,0,0,0,1.29-1.37,1.11,1.11,0,0,0-1.2-1.27,1.63,1.63,0,0,0-.49,0Zm0,4a1.83,1.83,0,0,0,.44,0,1.38,1.38,0,0,0,1.47-1.51,1.45,1.45,0,0,0-1.51-1.54h-.4Z" style="fill:#666"/><path d="M28,56.92c-1.74,0-2.61-1.85-2.61-4.5s1-4.47,2.75-4.47,2.56,2,2.56,4.37c0,3.3-1.15,4.6-2.69,4.6Zm.08-1.21c.89,0,1.18-1.57,1.18-3.33,0-1.58-.26-3.22-1.2-3.22s-1.24,1.62-1.23,3.25.31,3.3,1.23,3.3Z" style="fill:#666"/><path d="M34.65,56.82,34,55c-.17-.49-.33-1-.49-1.54h0c-.17.57-.32,1.09-.46,1.57l-.6,1.81H31l1.7-4.48-1.63-4.29h1.44l.62,1.81c.16.43.29.87.46,1.4h0c.17-.57.29-1,.42-1.43l.57-1.78H36l-1.67,4.32,1.76,4.45Z" style="fill:#666"/><path d="M5,5H45V45H5Z" style="fill:#afce7c"/><path d="M40,25A15,15,0,1,1,24.83,10.17H25A14.93,14.93,0,0,1,40,25Z" style="fill:#fefefe"/><path d="M21.2,18.51c-1.67,2-8.6,10.16-8,15.68a16.2,16.2,0,0,0,1.33,1.53c0-4.23,4.88-8.75,8.75-12.16l-2.16-5Z" style="fill:#329e54"/><path d="M21.19,18.51c-1.66,2-8.59,10.16-8,15.68a14.88,14.88,0,0,0,1.33,1.53c0-4.23,4.88-8.75,8.75-12.16Z" style="fill:#afce7c"/><path d="M17.12,12.39a14.11,14.11,0,0,0-2.4,1.81,11.31,11.31,0,0,1,6.07,4.28,42.5,42.5,0,0,1,2.56,5.09c.56-.48,1.13-.94,1.7-1.41V14.84a14.83,14.83,0,0,0-7.9-2.45Z" style="fill:#afce7c"/><path d="M17.12,12.39a14.11,14.11,0,0,0-2.4,1.81,11.31,11.31,0,0,1,6.07,4.28,42.5,42.5,0,0,1,2.56,5.09c.56-.48,1.13-.94,1.7-1.41V14.84a14.83,14.83,0,0,0-7.9-2.45Z" style="fill:#afce7c"/><path d="M28.81,18.51c1.66,2,8.56,10.17,8,15.7a16.08,16.08,0,0,1-1.33,1.52c0-4.22-4.87-8.74-8.72-12.16l2.16-5.06Z" style="fill:#afce7c"/><path d="M28.81,18.51c1.66,2,8.56,10.17,8,15.7a13.78,13.78,0,0,1-1.33,1.52c0-4.22-4.87-8.74-8.73-12.16Z" style="fill:#afce7c"/><path d="M32.87,12.39a14.52,14.52,0,0,1,2.4,1.81,11.39,11.39,0,0,0-6.06,4.28,46,46,0,0,0-2.56,5.11c-.53-.47-1.09-.94-1.69-1.42V14.84a14.68,14.68,0,0,1,7.87-2.45Z" style="fill:#afce7c"/><path d="M32.87,12.39a14.52,14.52,0,0,1,2.4,1.81,11.39,11.39,0,0,0-6.06,4.28,46,46,0,0,0-2.56,5.11c-.53-.47-1.09-.94-1.69-1.42V14.84a14.68,14.68,0,0,1,7.87-2.45Z" style="fill:#afce7c"/></svg>